<?xml version="1.0" standalone="no"?>
<!DOCTYPE svg PUBLIC "-//W3C//DTD SVG 20010904//EN"
 "http://www.w3.org/TR/2001/REC-SVG-20010904/DTD/svg10.dtd">
<svg version="1.0" xmlns="http://www.w3.org/2000/svg"
 width="433.000000pt" height="578.000000pt" viewBox="0 0 433.000000 578.000000"
 preserveAspectRatio="xMidYMid meet">

<g transform="translate(0.000000,578.000000) scale(0.100000,-0.100000)"
fill="#000000" stroke="none">
<path d="M1930 5700 c-43 -12 -109 -40 -155 -68 -44 -27 -99 -57 -123 -67 -58
-25 -124 -101 -167 -191 l-35 -73 -2 -178 c-3 -168 6 -390 15 -400 3 -2 15 10
27 27 15 21 23 48 24 83 2 29 8 81 15 117 7 36 10 83 7 105 -9 58 33 195 67
224 8 6 35 13 59 14 24 2 49 6 55 10 13 8 53 -12 53 -26 0 -4 6 -5 13 0 15 9
138 4 152 -6 5 -5 28 -12 50 -15 22 -4 47 -16 55 -27 9 -11 32 -21 55 -24 54
-6 124 -26 131 -36 3 -5 13 -9 23 -9 23 0 34 -35 15 -50 -14 -12 -15 -70 -1
-70 5 0 5 -5 2 -10 -4 -6 3 -25 14 -43 25 -41 18 -75 -18 -83 -14 -4 -30 -11
-36 -18 -21 -24 -99 -56 -138 -57 -23 -1 -34 -3 -24 -6 21 -5 22 -17 2 -33
-18 -15 -35 -5 -35 21 0 16 -7 19 -37 18 -21 -1 -30 -3 -20 -6 25 -7 21 -22
-8 -29 -16 -4 -35 0 -51 11 -22 14 -41 16 -116 11 -49 -3 -101 -8 -116 -11
-15 -3 -21 -2 -14 1 6 3 9 10 6 15 -3 6 -11 6 -20 -2 -7 -6 -11 -15 -8 -20 3
-5 0 -9 -6 -9 -6 0 -10 -8 -8 -17 2 -12 13 -18 33 -19 64 -1 91 -5 105 -14 13
-9 13 -12 -2 -21 -10 -5 -18 -16 -18 -24 0 -8 -27 -28 -60 -45 -34 -17 -58
-35 -55 -40 10 -17 40 -11 53 10 15 25 38 26 46 3 4 -10 15 -34 25 -53 11 -19
17 -38 14 -42 -9 -16 49 -7 86 11 44 23 64 61 65 127 1 24 4 44 7 44 4 0 17
11 30 25 24 24 46 34 34 15 -7 -11 25 -70 37 -70 4 0 14 -12 21 -27 13 -28 15
-175 3 -251 -7 -43 -37 -135 -47 -147 -5 -5 -9 -19 -9 -32 0 -27 25 -31 57 -8
26 18 53 10 53 -15 0 -20 -33 -34 -105 -45 -45 -7 -82 -24 -55 -26 8 0 31 -2
50 -5 19 -2 52 -4 73 -4 37 1 38 0 33 -30 -8 -54 -53 -109 -89 -110 -11 0 -15
-5 -11 -11 4 -7 28 -9 70 -4 l64 7 0 -32 c0 -22 -4 -29 -12 -25 -7 4 -4 -2 7
-12 22 -19 22 -48 0 -73 -7 -8 -20 -29 -29 -47 -15 -30 -17 -31 -42 -18 -29
15 -65 7 -96 -22 -10 -8 -23 -12 -30 -9 -46 24 -115 72 -147 103 -26 26 -51
30 -51 9 0 -20 98 -112 151 -141 27 -14 72 -28 101 -32 29 -3 67 -13 85 -23
17 -10 41 -16 52 -13 25 6 25 3 10 -84 -14 -79 -7 -108 31 -128 17 -9 30 -24
30 -34 0 -22 -30 -51 -53 -51 -20 0 -31 -16 -17 -25 21 -13 65 -91 65 -115 0
-36 27 -36 86 -1 27 18 54 29 60 26 5 -4 9 -26 9 -51 0 -50 14 -84 33 -84 26
0 54 67 158 370 33 96 64 185 71 197 10 21 6 139 -8 226 -5 31 0 51 30 110 37
74 55 161 56 274 0 48 3 55 35 80 51 40 72 91 96 233 21 127 19 190 -5 190 -8
0 -16 7 -20 15 -7 20 -42 19 -56 -2 -10 -15 -10 -14 -4 7 4 14 11 114 17 224
11 235 5 276 -56 368 -86 129 -219 248 -338 303 -48 21 -73 25 -204 30 -131 5
-160 3 -225 -15z m565 -896 c83 -28 82 -27 59 -31 -16 -3 -20 -10 -17 -36 2
-30 2 -30 -8 6 -11 39 -21 46 -89 65 -21 6 -27 10 -15 11 11 1 43 -6 70 -15z
m-380 -34 c-8 -16 -15 -39 -15 -52 l0 -23 -20 25 c-11 14 -19 32 -19 40 1 11
3 10 6 -2 5 -20 23 -25 23 -6 0 11 29 48 37 48 2 0 -3 -13 -12 -30z m65 12 c0
-13 -30 -52 -41 -52 -13 0 -11 34 3 48 13 13 38 16 38 4z m93 -122 c4 -14 0
-20 -12 -20 -25 0 -33 11 -20 27 16 18 26 16 32 -7z m354 14 c-3 -3 -12 -4
-19 -1 -8 3 -5 6 6 6 11 1 17 -2 13 -5z m176 -14 c3 -11 2 -20 -3 -20 -4 0
-10 9 -13 20 -3 11 -2 20 3 20 4 0 10 -9 13 -20z m-300 -112 c28 -14 33 -23
17 -33 -10 -6 -65 19 -75 35 -9 14 26 13 58 -2z m217 -21 c0 -5 -4 -5 -10 -2
-5 3 -10 14 -10 23 0 15 2 15 10 2 5 -8 10 -19 10 -23z m-308 0 c-12 -13 -22
-29 -22 -35 0 -7 -13 -12 -30 -12 -17 0 -30 5 -30 13 0 27 15 35 99 56 3 1 -5
-9 -17 -22z m161 -49 c-25 -43 -94 -78 -152 -77 l-46 1 51 9 c80 13 99 24 130
73 32 50 47 45 17 -6z m190 -28 c-3 -11 -9 -20 -14 -20 -10 0 -12 24 -2 33 13
13 21 7 16 -13z m-593 -354 c0 -3 -4 -8 -10 -11 -5 -3 -10 -1 -10 4 0 6 5 11
10 11 6 0 10 -2 10 -4z"/>
<path d="M1523 4753 c-46 -41 -57 -93 -18 -93 21 0 25 5 25 30 0 39 27 41 33
3 3 -23 4 -22 6 9 1 39 -7 68 -19 68 -4 0 -16 -8 -27 -17z"/>
<path d="M1432 4690 c0 -19 2 -27 5 -17 2 9 2 25 0 35 -3 9 -5 1 -5 -18z"/>
<path d="M1960 4695 c0 -14 2 -25 4 -25 2 0 6 11 8 25 3 14 1 25 -3 25 -5 0
-9 -11 -9 -25z"/>
<path d="M1942 4645 c-9 -11 -9 -15 -1 -15 11 0 9 -16 -6 -52 -12 -30 13 -20
28 10 13 27 12 72 -1 72 -4 -1 -13 -7 -20 -15z"/>
<path d="M1520 4496 c0 -8 9 -24 20 -37 l19 -24 1 38 c0 30 -3 37 -20 37 -11
0 -20 -6 -20 -14z"/>
<path d="M1925 4300 c-16 -7 -17 -9 -3 -9 9 -1 20 4 23 9 7 11 7 11 -20 0z"/>
<path d="M1741 4254 c-19 -24 -27 -44 -17 -44 2 0 16 16 30 35 15 19 23 35 17
35 -5 0 -19 -12 -30 -26z"/>
<path d="M1774 4131 c-12 -13 -2 -32 15 -26 10 3 24 -1 31 -10 15 -18 30 -11
30 15 0 10 8 21 18 23 9 2 -7 4 -36 3 -30 0 -56 -3 -58 -5z"/>
<path d="M1693 3719 c-21 -33 -60 -195 -50 -206 3 -2 8 13 11 33 12 62 24 23
15 -51 -4 -38 -10 -101 -14 -140 -4 -38 -13 -87 -22 -107 -11 -26 -13 -48 -8
-75 7 -36 8 -36 15 -13 6 19 8 12 10 -30 2 -43 4 -50 10 -30 l8 25 1 -27 c2
-55 19 -35 25 30 16 163 16 178 6 157 -8 -15 -9 3 -5 64 2 47 9 89 15 95 7 7
9 -12 6 -64 -3 -41 -3 -66 0 -55 14 49 22 30 19 -46 -3 -56 -1 -74 4 -54 7 24
9 14 11 -45 1 -54 4 -68 10 -50 6 19 8 8 10 -40 l2 -65 14 35 c14 35 14 35 10
5 -3 -17 -1 -37 5 -45 7 -12 9 -9 10 10 1 20 3 18 9 -10 7 -31 8 -33 15 -13 6
20 9 20 22 8 8 -8 12 -19 9 -23 -3 -5 5 -14 17 -19 13 -6 38 -32 57 -57 19
-26 64 -84 100 -131 63 -82 109 -159 131 -220 10 -29 11 -29 25 -10 8 11 22
45 30 75 9 30 27 80 41 111 l24 56 -22 37 c-18 31 -26 36 -48 32 -96 -19 -101
-19 -101 2 0 15 -5 19 -18 15 -10 -2 -24 3 -31 11 -8 9 -18 16 -24 16 -12 0
-56 49 -66 75 -5 11 -4 30 0 43 6 16 4 41 -7 75 -27 91 -56 140 -103 171 -90
60 -141 185 -150 366 l-6 115 -22 -36z m-6 -261 c-2 -13 -4 -5 -4 17 -1 22 1
32 4 23 2 -10 2 -28 0 -40z"/>
<path d="M2780 3580 c0 -5 5 -10 11 -10 5 0 7 5 4 10 -3 6 -8 10 -11 10 -2 0
-4 -4 -4 -10z"/>
<path d="M2896 3560 c14 -14 124 -52 137 -47 7 2 -24 16 -68 30 -43 15 -74 22
-69 17z"/>
<path d="M2795 3550 c3 -5 14 -10 23 -10 15 0 15 2 2 10 -20 13 -33 13 -25 0z"/>
<path d="M2810 3520 c0 -5 7 -10 16 -10 8 0 12 5 9 10 -3 6 -10 10 -16 10 -5
0 -9 -4 -9 -10z"/>
<path d="M2965 3500 c22 -11 47 -19 55 -19 17 0 -33 23 -71 33 -13 3 -6 -3 16
-14z"/>
<path d="M2827 3489 c7 -7 15 -10 18 -7 3 3 -2 9 -12 12 -14 6 -15 5 -6 -5z"/>
<path d="M2968 3468 c5 -5 16 -8 23 -6 8 3 3 7 -10 11 -17 4 -21 3 -13 -5z"/>
<path d="M2967 3439 c7 -7 15 -10 18 -7 3 3 -2 9 -12 12 -14 6 -15 5 -6 -5z"/>
<path d="M2927 3429 c7 -7 15 -10 18 -7 3 3 -2 9 -12 12 -14 6 -15 5 -6 -5z"/>
<path d="M2875 3420 c3 -5 11 -10 16 -10 6 0 7 5 4 10 -3 6 -11 10 -16 10 -6
0 -7 -4 -4 -10z"/>
<path d="M2880 3386 c0 -2 8 -10 18 -17 15 -13 16 -12 3 4 -13 16 -21 21 -21
13z"/>
<path d="M2940 3360 c8 -5 20 -10 25 -10 6 0 3 5 -5 10 -8 5 -19 10 -25 10 -5
0 -3 -5 5 -10z"/>
<path d="M2901 3324 c1 -24 2 -25 6 -6 6 32 23 17 24 -21 0 -18 4 -41 9 -52 5
-14 8 -1 7 37 -1 32 -5 58 -9 58 -3 0 -13 3 -22 6 -12 5 -16 0 -15 -22z"/>
<path d="M2962 3310 c0 -14 2 -19 5 -12 2 6 2 18 0 25 -3 6 -5 1 -5 -13z"/>
<path d="M3170 3256 c0 -31 6 -34 13 -6 3 11 1 23 -4 26 -5 3 -9 -6 -9 -20z"/>
<path d="M2884 3175 c3 -49 12 -126 20 -170 l14 -80 1 79 c1 72 -23 244 -36
256 -3 3 -3 -35 1 -85z"/>
<path d="M3156 3204 c-8 -20 -8 -69 0 -62 6 6 14 78 9 78 -2 0 -6 -7 -9 -16z"/>
<path d="M3177 3130 c-30 -144 -41 -223 -48 -345 -4 -77 -11 -165 -14 -196 -3
-30 -2 -66 3 -79 8 -20 10 -12 16 45 4 39 12 88 18 110 6 22 14 81 18 130 4
50 15 132 24 184 9 51 15 98 12 105 -2 6 -6 2 -7 -9 -1 -11 -5 5 -9 35 -6 53
-6 54 -13 20z"/>
<path d="M1707 3130 c-4 -14 -6 -47 -6 -75 l1 -50 9 60 c10 66 8 106 -4 65z"/>
<path d="M2415 3039 c-33 -49 -67 -101 -75 -114 -8 -14 -22 -25 -31 -25 -20 0
-44 -26 -31 -34 9 -5 54 0 79 9 7 2 17 -5 23 -15 7 -14 7 -20 0 -20 -5 0 -10
-9 -10 -21 0 -11 -4 -17 -10 -14 -5 3 -10 -3 -10 -15 0 -13 -4 -19 -11 -14 -8
5 -10 -3 -7 -27 7 -48 -9 -89 -51 -129 -110 -104 -160 -192 -162 -282 -2 -57
-3 -59 -8 -23 l-7 40 -8 -60 c-4 -33 -10 -69 -12 -80 -4 -16 -3 -17 5 -5 6 8
11 26 12 40 2 24 2 24 6 3 8 -41 21 -24 28 35 10 89 13 92 15 17 2 -79 6 -77
19 10 l9 60 1 -50 c2 -38 4 -45 11 -30 5 11 9 36 10 55 l2 35 13 -40 13 -40 1
51 c1 49 0 52 -29 58 -40 8 -38 21 4 22 32 0 34 -2 43 -45 l10 -46 2 42 c1 42
15 65 24 41 3 -7 8 2 12 20 9 37 24 43 26 10 1 -21 2 -21 6 -3 15 73 13 69 28
49 14 -18 14 -17 15 8 0 36 20 47 21 11 1 -23 3 -21 13 15 13 51 26 45 27 -12
1 -51 5 -39 15 39 l7 60 12 -40 c12 -38 13 -39 14 -10 1 17 6 37 11 45 7 11
10 6 10 -20 0 -26 3 -31 10 -20 5 8 10 32 10 52 0 60 20 56 21 -4 l2 -53 7 50
c5 28 9 78 9 113 1 34 5 62 11 62 6 0 11 -45 11 -112 l2 -113 8 129 c9 134 19
180 19 83 0 -31 5 -59 10 -62 6 -4 10 11 11 37 1 70 17 93 20 28 l1 -55 12 62
c15 84 26 89 27 12 2 -67 3 -63 15 36 l8 60 7 -45 c4 -25 9 -65 10 -90 l2 -45
7 55 6 55 8 -83 c5 -45 10 -81 11 -80 1 2 5 53 9 113 l7 110 -53 52 c-65 64
-73 71 -123 107 -22 17 -42 32 -45 35 -9 10 -68 41 -77 41 -4 -1 -35 -41 -68
-91z"/>
<path d="M2931 3085 c0 -22 7 -71 14 -110 l14 -70 -5 88 c-6 96 -23 165 -23
92z"/>
<path d="M1741 3084 c0 -11 3 -14 6 -6 3 7 2 16 -1 19 -3 4 -6 -2 -5 -13z"/>
<path d="M1732 3025 c0 -16 2 -22 5 -12 2 9 2 23 0 30 -3 6 -5 -1 -5 -18z"/>
<path d="M2111 3036 c-9 -11 -7 -15 9 -19 15 -4 20 0 20 14 0 22 -13 25 -29 5z"/>
<path d="M1544 3026 c-17 -8 -61 -24 -98 -37 -69 -23 -93 -49 -80 -84 6 -14 8
-13 20 2 12 16 13 11 14 -42 l2 -60 13 40 c11 34 13 36 15 15 l2 -25 11 28
c12 31 27 36 28 10 1 -18 1 -19 16 27 3 11 8 9 18 -10 l14 -25 1 23 c0 29 20
19 21 -11 1 -16 3 -13 10 11 5 18 14 30 19 27 4 -3 11 1 13 7 4 10 8 9 16 -2
8 -11 11 -12 11 -2 0 7 5 10 10 7 6 -3 10 -27 10 -53 0 -34 3 -43 10 -32 5 8
10 28 10 43 0 16 4 26 10 22 6 -3 10 -4 10 -2 0 9 -32 67 -40 72 -5 3 -11 19
-15 35 -7 33 -23 37 -71 16z"/>
<path d="M3473 2998 c-6 -7 -14 -24 -18 -38 -4 -14 -17 -40 -28 -59 -22 -36
-12 -36 30 2 27 24 49 85 36 98 -6 6 -14 5 -20 -3z"/>
<path d="M2055 2990 c-3 -5 3 -10 14 -10 12 0 21 5 21 10 0 6 -6 10 -14 10 -8
0 -18 -4 -21 -10z"/>
<path d="M2983 2955 c0 -22 2 -30 4 -17 2 12 2 30 0 40 -3 9 -5 -1 -4 -23z"/>
<path d="M1701 2954 c0 -11 3 -14 6 -6 3 7 2 16 -1 19 -3 4 -6 -2 -5 -13z"/>
<path d="M3564 2938 l-19 -21 28 18 c28 18 33 25 19 25 -5 0 -17 -10 -28 -22z"/>
<path d="M3715 2920 c-19 -8 -19 -9 3 -9 12 -1 22 4 22 9 0 6 -1 10 -2 9 -2 0
-12 -4 -23 -9z"/>
<path d="M2130 2909 c0 -5 5 -7 10 -4 6 3 10 8 10 11 0 2 -4 4 -10 4 -5 0 -10
-5 -10 -11z"/>
<path d="M3574 2898 l-19 -23 23 19 c21 18 27 26 19 26 -2 0 -12 -10 -23 -22z"/>
<path d="M3648 2878 c-21 -22 -38 -46 -38 -54 0 -8 -6 -11 -16 -7 -13 5 -15 2
-9 -17 8 -25 -14 -48 -27 -27 -4 7 -8 -2 -8 -20 0 -18 -3 -32 -7 -32 -22 4
-31 -4 -37 -32 -3 -17 -10 -28 -15 -24 -6 3 -13 -11 -17 -31 -4 -20 -10 -31
-14 -25 -4 7 -15 -17 -24 -53 -10 -35 -24 -67 -32 -70 -8 -3 -14 -12 -14 -20
0 -30 -34 -126 -45 -126 -11 0 -26 -49 -45 -142 -4 -21 -4 -38 1 -38 4 0 9 12
11 28 2 15 8 26 15 25 7 -2 15 13 19 32 5 29 9 33 20 24 11 -9 14 -7 14 9 0
33 11 56 21 41 5 -8 10 0 14 24 5 25 11 34 21 30 10 -4 14 3 14 21 0 27 15 36
22 14 3 -7 8 7 12 32 5 30 10 40 15 31 14 -22 23 21 17 76 l-5 48 10 -43 c16
-65 32 -42 26 37 -6 62 -5 63 4 21 18 -78 32 -73 26 10 -5 72 -5 73 6 28 19
-76 29 -69 23 17 -5 70 -4 75 5 35 6 -25 15 -49 21 -55 9 -9 7 26 -7 160 -3
28 -2 36 5 25 5 -8 10 -31 11 -50 0 -19 5 -46 9 -60 7 -18 9 -8 9 40 0 36 0
76 1 90 1 24 1 24 15 6 14 -18 15 -17 15 22 0 23 -1 42 -2 41 -2 0 -20 -19
-40 -41z m-161 -380 c-3 -7 -5 -2 -5 12 0 14 2 19 5 13 2 -7 2 -19 0 -25z"/>
<path d="M3602 2879 c-19 -17 -32 -32 -30 -35 3 -2 20 12 38 31 42 43 37 45
-8 4z"/>
<path d="M2890 2870 c0 -16 4 -30 8 -30 5 0 7 14 4 30 -2 17 -6 30 -8 30 -2 0
-4 -13 -4 -30z"/>
<path d="M3866 2887 c3 -10 9 -15 12 -12 3 3 0 11 -7 18 -10 9 -11 8 -5 -6z"/>
<path d="M2792 2850 c0 -19 2 -27 5 -17 2 9 2 25 0 35 -3 9 -5 1 -5 -18z"/>
<path d="M3850 2843 c0 -4 5 -15 10 -23 8 -13 10 -13 10 2 0 9 -4 20 -10 23
-5 3 -10 3 -10 -2z"/>
<path d="M3837 2786 c3 -15 10 -29 15 -32 6 -4 7 2 3 17 -10 35 -23 45 -18 15z"/>
<path d="M3671 2784 c0 -11 3 -14 6 -6 3 7 2 16 -1 19 -3 4 -6 -2 -5 -13z"/>
<path d="M3812 2775 c0 -16 3 -39 8 -50 8 -18 9 -18 8 5 0 14 -4 36 -8 50 -8
24 -8 24 -8 -5z"/>
<path d="M2933 2755 c0 -22 2 -30 4 -17 2 12 2 30 0 40 -3 9 -5 -1 -4 -23z"/>
<path d="M3389 2763 c-35 -89 -42 -116 -54 -193 -13 -81 -12 -127 1 -62 4 18
10 32 14 32 4 0 12 18 18 40 6 25 6 40 0 40 -5 0 -6 5 -3 10 4 6 11 7 17 4 8
-5 9 3 5 23 -3 17 -2 34 3 39 7 8 19 94 13 94 -2 0 -8 -12 -14 -27z"/>
<path d="M1912 2760 c0 -14 2 -19 5 -12 2 6 2 18 0 25 -3 6 -5 1 -5 -13z"/>
<path d="M3784 2714 c4 -43 3 -50 -3 -26 -13 50 -21 50 -21 1 0 -62 12 -77 34
-44 13 20 15 37 10 71 -10 68 -27 67 -20 -2z"/>
<path d="M1921 2704 c0 -11 3 -14 6 -6 3 7 2 16 -1 19 -3 4 -6 -2 -5 -13z"/>
<path d="M2251 2673 c-10 -26 -10 -27 4 -9 8 11 15 23 15 28 0 15 -7 8 -19
-19z"/>
<path d="M3735 2651 c-4 -7 -4 -28 0 -48 6 -31 8 -34 21 -21 13 12 13 19 1 47
-9 22 -17 29 -22 22z"/>
<path d="M3932 2598 c8 -62 18 -89 18 -51 0 39 -13 113 -20 113 -4 0 -3 -28 2
-62z"/>
<path d="M3862 2620 c0 -19 2 -27 5 -17 2 9 2 25 0 35 -3 9 -5 1 -5 -18z"/>
<path d="M2120 2611 c0 -5 5 -13 10 -16 6 -3 10 -2 10 4 0 5 -4 13 -10 16 -5
3 -10 2 -10 -4z"/>
<path d="M3710 2591 c0 -11 -7 -26 -15 -35 -8 -8 -15 -24 -15 -36 0 -11 -7
-23 -15 -26 -8 -4 -15 -17 -15 -30 0 -14 -7 -27 -15 -30 -8 -4 -15 -17 -15
-29 0 -13 -7 -30 -15 -38 -7 -8 -17 -26 -20 -40 -4 -15 -13 -31 -21 -38 -8 -6
-14 -20 -14 -30 0 -10 -6 -22 -14 -26 -7 -4 -18 -21 -23 -38 -6 -16 -16 -29
-22 -27 -6 1 -11 -7 -11 -18 0 -11 -8 -28 -19 -39 -10 -10 -21 -30 -25 -45 -4
-15 -11 -24 -16 -21 -5 3 -14 -13 -20 -35 -6 -22 -15 -38 -19 -35 -8 5 -25
-55 -17 -62 2 -2 11 11 20 29 9 18 30 56 46 83 15 28 36 65 45 83 10 17 20 32
24 32 4 0 13 15 19 34 7 19 19 37 27 40 8 3 15 14 15 25 0 11 8 28 19 38 10
10 22 29 26 43 4 14 14 33 22 42 14 16 32 46 69 118 10 19 25 40 32 46 10 7
12 20 7 42 -8 37 -25 53 -25 23z"/>
<path d="M3809 2605 c-4 -5 -2 -57 5 -115 7 -65 12 -90 14 -65 3 53 -12 193
-19 180z"/>
<path d="M3840 2552 l5 -47 3 39 c2 21 0 42 -5 47 -4 4 -6 -13 -3 -39z"/>
<path d="M1373 2510 c0 -30 2 -43 4 -27 2 15 2 39 0 55 -2 15 -4 2 -4 -28z"/>
<path d="M3761 2528 c-7 -21 -16 -38 -21 -38 -4 0 -15 -18 -24 -40 -9 -22 -20
-40 -24 -40 -5 0 -15 -18 -22 -40 -7 -21 -17 -38 -23 -37 -13 3 -35 -60 -35
-98 0 -26 2 -24 18 20 17 46 19 48 20 20 2 -29 2 -29 15 10 11 33 14 36 15 15
2 -22 3 -21 13 10 13 44 16 48 26 31 5 -8 11 7 16 41 7 48 9 50 14 23 l7 -30
7 25 c4 14 7 45 8 70 l2 45 6 -47 c11 -74 22 -69 20 10 -1 39 -5 69 -9 67 -5
-3 -10 1 -13 7 -2 7 -9 -4 -16 -24z"/>
<path d="M3915 2485 c3 -63 2 -73 -6 -47 -16 52 -22 37 -15 -34 5 -44 3 -64
-4 -59 -5 3 -10 16 -11 28 l0 22 -9 -23 c-9 -21 -3 -82 7 -82 15 0 33 34 33
64 0 36 14 56 24 34 10 -22 -5 133 -15 156 -6 14 -8 -4 -4 -59z"/>
<path d="M1342 2460 c0 -14 2 -19 5 -12 2 6 2 18 0 25 -3 6 -5 1 -5 -13z"/>
<path d="M3282 2343 c-16 -81 -9 -93 12 -22 18 59 20 76 8 83 -4 2 -13 -25
-20 -61z"/>
<path d="M3106 2212 c-3 -103 -12 -221 -20 -262 l-13 -75 -2 55 c-1 40 -4 51
-11 40 -5 -8 -10 -25 -10 -38 0 -32 -20 -17 -21 16 l-1 27 -8 -30 c-5 -16 -10
-70 -13 -118 -3 -52 -9 -93 -17 -100 -10 -10 -11 -3 -6 33 3 25 8 99 10 165
l5 120 -13 -75 -13 -75 -3 125 c-2 82 -5 115 -10 95 -5 -21 -8 -24 -10 -10
l-1 20 -9 -20 c-5 -11 -9 -32 -9 -47 -1 -15 -8 -31 -16 -36 -13 -7 -14 -18 -6
-63 l9 -54 1 59 c1 73 13 66 17 -9 2 -37 10 -65 23 -81 12 -15 17 -32 13 -46
l-5 -22 -10 22 c-14 30 -22 28 -35 -10 -9 -31 -10 -30 -12 27 -2 55 -3 57 -10
22 -11 -56 -20 -57 -21 -1 -1 73 -17 17 -18 -66 -1 -59 1 -66 19 -66 11 0 20
5 20 10 0 5 3 6 7 2 9 -8 5 -267 -5 -316 -6 -31 -8 -26 -18 45 l-11 80 -2 -73
c0 -40 -6 -82 -11 -93 -14 -25 -3 -44 16 -28 11 9 14 8 15 -7 0 -11 7 -3 16
19 12 30 18 35 29 26 11 -9 14 -8 14 1 0 8 3 11 6 8 3 -4 -2 -17 -10 -31 -12
-18 -18 -57 -21 -152 -2 -70 -6 -130 -9 -133 -3 -3 -6 47 -6 111 0 71 -4 117
-10 117 -5 0 -10 -17 -10 -37 -1 -36 -2 -37 -15 -19 -15 19 -15 19 -15 -5 0
-13 -2 -61 -5 -107 -3 -73 -2 -82 13 -80 9 2 22 -8 30 -25 7 -15 17 -27 21
-27 9 0 40 68 64 140 8 25 18 85 22 133 6 78 10 91 35 117 16 16 43 50 61 76
30 44 32 52 29 118 -2 39 -4 98 -5 131 -1 33 -6 113 -10 178 -5 68 -4 117 1
117 12 0 18 357 6 364 -5 3 -12 -76 -16 -182z m-150 -490 c-8 -9 -19 -13 -22
-9 -10 9 16 38 28 31 6 -4 4 -13 -6 -22z m104 -16 c0 -2 -7 -23 -15 -47 -13
-39 -13 -42 0 -25 8 11 15 28 15 38 0 10 4 18 9 18 11 0 21 -26 20 -48 -1 -10
-4 -6 -8 8 -7 24 -8 23 -14 -11 -11 -53 -32 -68 -56 -40 -18 21 -20 21 -30 4
-9 -16 -10 -15 -11 9 0 29 15 47 22 26 3 -7 16 6 29 30 20 35 39 54 39 38z
m-100 -61 c0 -8 -7 -15 -15 -15 -16 0 -20 12 -8 23 11 12 23 8 23 -8z m-14
-91 c1 -32 4 -72 7 -89 4 -16 4 -22 1 -12 -5 14 -9 16 -20 6 -12 -10 -14 2
-14 76 0 65 3 86 13 82 7 -2 12 -25 13 -63z m120 11 c-27 -41 -38 -28 -14 15
15 25 24 34 26 24 2 -8 -4 -26 -12 -39z m8 -37 c-10 -18 -19 -28 -21 -21 -3
10 25 53 34 53 2 0 -4 -15 -13 -32z m7 -45 c-8 -15 -10 -15 -11 -2 0 17 10 32
18 25 2 -3 -1 -13 -7 -23z m-91 -30 c0 -32 -5 -28 -14 10 -4 19 -3 26 4 22 5
-3 10 -18 10 -32z m-3 -75 c-3 -7 -5 -2 -5 12 0 14 2 19 5 13 2 -7 2 -19 0
-25z"/>
<path d="M1183 2310 c0 -36 2 -50 4 -32 2 17 2 47 0 65 -2 17 -4 3 -4 -33z"/>
<path d="M3788 2323 c-1 -21 -1 -58 -1 -83 l1 -45 -12 50 -13 50 -7 -49 c-4
-27 -11 -58 -16 -70 -8 -20 -9 -20 -10 -1 -1 11 -8 -2 -16 -28 -8 -26 -19 -45
-24 -42 -4 3 -14 -11 -20 -30 -6 -19 -16 -35 -20 -35 -18 0 -28 -36 -21 -70
l7 -34 13 44 c13 41 15 43 21 20 5 -21 8 -17 20 30 l14 55 6 -40 6 -40 11 55
11 55 2 -45 c1 -35 3 -41 10 -25 8 18 9 18 10 -5 2 -19 5 -14 15 20 7 25 14
38 14 30 2 -28 21 12 21 45 0 22 3 26 9 16 8 -12 11 -9 16 12 4 15 5 36 2 47
-3 11 -1 20 4 20 5 0 9 -5 9 -12 0 -9 3 -9 11 -1 7 7 8 28 3 58 -6 44 -8 47
-20 30 -14 -18 -14 -18 -15 1 -1 10 -7 -10 -14 -46 -10 -53 -13 -59 -15 -30
-1 19 -1 56 0 83 2 55 -9 65 -12 10z m-21 -240 c-3 -10 -5 -2 -5 17 0 19 2 27
5 18 2 -10 2 -26 0 -35z"/>
<path d="M2904 2250 c0 -52 1 -74 3 -47 2 26 2 68 0 95 -2 26 -3 4 -3 -48z"/>
<path d="M846 2270 c3 -25 12 -52 18 -60 7 -8 19 -30 26 -48 14 -35 36 -56 27
-26 -3 11 -11 37 -16 59 -6 22 -22 58 -36 80 l-26 40 7 -45z"/>
<path d="M2007 2125 c5 -176 13 -251 13 -125 0 95 12 65 20 -52 l7 -103 1 140
c0 77 -3 160 -7 185 -8 44 -9 44 -11 -25 -3 -70 -3 -70 -16 45 l-12 115 5
-180z"/>
<path d="M1111 2253 c0 -12 -6 -25 -12 -29 -26 -16 -3 -156 52 -318 29 -86 54
-154 57 -152 2 3 -4 28 -13 56 -9 28 -15 53 -13 56 5 4 44 -120 52 -166 2 -14
11 -41 19 -60 8 -19 11 -44 8 -54 -9 -23 -154 391 -175 499 -8 39 -15 58 -15
44 -2 -54 23 -147 88 -332 81 -226 87 -246 73 -232 -13 13 -145 384 -162 453
-7 29 -14 51 -16 49 -9 -9 20 -108 87 -301 69 -200 90 -289 44 -191 -28 59
-30 57 -10 -9 34 -111 4 -84 -36 32 -28 85 -34 74 -8 -17 11 -40 19 -75 16
-77 -2 -3 -14 20 -27 50 -12 31 -32 66 -45 80 -13 14 -31 46 -41 73 -9 26 -21
52 -25 57 -9 10 17 -101 36 -154 32 -89 59 -191 66 -250 5 -36 11 -78 15 -94
5 -21 4 -27 -5 -22 -7 5 -11 -3 -11 -23 0 -44 -17 -47 -25 -4 -5 26 -9 33 -15
23 -6 -10 -11 -2 -16 28 -4 23 -10 42 -15 42 -12 0 -11 -41 3 -135 12 -75 13
-78 19 -40 5 32 6 25 8 -32 1 -55 4 -73 15 -73 9 0 16 -18 20 -50 4 -29 11
-48 16 -45 6 4 10 -11 10 -34 0 -22 4 -42 9 -45 4 -3 6 -16 4 -28 -3 -14 6
-42 21 -68 31 -54 32 -70 7 -70 -11 0 -23 -5 -26 -10 -7 -11 53 -14 79 -4 12
5 13 10 6 25 -14 26 -10 125 7 176 12 38 12 46 -2 73 -12 24 -22 30 -42 28
-15 -2 -30 4 -36 13 -15 23 0 87 22 94 20 6 96 -20 122 -42 13 -11 18 -11 27
0 19 22 52 107 42 107 -6 0 -10 21 -10 48 0 36 -3 43 -11 32 -8 -12 -10 -10
-6 10 13 63 18 140 11 161 -8 24 -8 23 -15 -6 -6 -27 -7 -26 -8 13 0 24 7 57
16 75 18 35 22 135 6 146 -6 3 -23 44 -38 91 -20 58 -30 79 -35 66 -4 -12 -15
7 -35 65 -20 59 -30 77 -35 64 -10 -27 -79 218 -93 330 -3 19 -5 22 -6 8z m-4
-90 c-3 -10 -5 -4 -5 12 0 17 2 24 5 18 2 -7 2 -21 0 -30z m10 -45 c-3 -8 -6
-5 -6 6 -1 11 2 17 5 13 3 -3 4 -12 1 -19z m10 -50 c-3 -7 -5 -2 -5 12 0 14 2
19 5 13 2 -7 2 -19 0 -25z m27 -83 c8 -32 13 -61 11 -63 -3 -4 -15 34 -31 103
-12 54 4 21 20 -40z"/>
<path d="M3583 2227 c-7 -26 -13 -57 -12 -70 0 -12 7 1 15 28 8 28 13 59 11
70 -1 11 -8 -2 -14 -28z"/>
<path d="M3202 2235 c0 -16 2 -22 5 -12 2 9 2 23 0 30 -3 6 -5 -1 -5 -18z"/>
<path d="M2932 2220 c0 -14 2 -19 5 -12 2 6 2 18 0 25 -3 6 -5 1 -5 -13z"/>
<path d="M2363 2095 c0 -44 2 -61 4 -37 2 23 2 59 0 80 -2 20 -4 1 -4 -43z"/>
<path d="M3183 2135 c0 -22 2 -30 4 -17 2 12 2 30 0 40 -3 9 -5 -1 -4 -23z"/>
<path d="M3535 2120 c-4 -23 -5 -43 -2 -46 2 -3 7 14 11 37 4 23 5 44 2 46 -2
2 -7 -14 -11 -37z"/>
<path d="M2262 2130 c0 -14 2 -19 5 -12 2 6 2 18 0 25 -3 6 -5 1 -5 -13z"/>
<path d="M2751 2080 l-4 -75 -7 65 c-5 50 -7 28 -9 -95 -4 -204 -2 -220 19
-199 7 7 9 80 7 195 -1 101 -4 150 -6 109z"/>
<path d="M3923 2075 c0 -44 2 -61 4 -37 2 23 2 59 0 80 -2 20 -4 1 -4 -43z"/>
<path d="M522 2105 c0 -11 3 -29 8 -40 11 -25 11 1 0 35 -6 20 -8 21 -8 5z"/>
<path d="M3887 2052 c-5 -41 -6 -76 -3 -79 8 -9 18 60 14 107 -3 40 -4 37 -11
-28z"/>
<path d="M3072 2070 c0 -19 2 -27 5 -17 2 9 2 25 0 35 -3 9 -5 1 -5 -18z"/>
<path d="M3150 2056 c0 -8 5 -18 10 -21 6 -3 10 3 10 14 0 12 -4 21 -10 21 -5
0 -10 -6 -10 -14z"/>
<path d="M3856 2029 c-3 -17 -5 -55 -5 -83 2 -42 3 -38 9 29 9 85 7 107 -4 54z"/>
<path d="M2262 2025 c0 -16 2 -22 5 -12 2 9 2 23 0 30 -3 6 -5 -1 -5 -18z"/>
<path d="M2334 1925 c0 -66 1 -92 3 -57 2 34 2 88 0 120 -2 31 -3 3 -3 -63z"/>
<path d="M3491 2004 c0 -11 3 -14 6 -6 3 7 2 16 -1 19 -3 4 -6 -2 -5 -13z"/>
<path d="M1533 1955 c0 -22 2 -30 4 -17 2 12 2 30 0 40 -3 9 -5 -1 -4 -23z"/>
<path d="M3596 1961 c-14 -15 -15 -24 -7 -38 6 -10 11 -16 11 -13 0 3 4 20 9
38 11 37 10 39 -13 13z"/>
<path d="M1503 1895 c0 -38 2 -53 4 -32 2 20 2 52 0 70 -2 17 -4 1 -4 -38z"/>
<path d="M681 1934 c0 -11 3 -14 6 -6 3 7 2 16 -1 19 -3 4 -6 -2 -5 -13z"/>
<path d="M3823 1895 c0 -33 2 -45 4 -27 2 18 2 45 0 60 -2 15 -4 0 -4 -33z"/>
<path d="M3330 1878 c0 -34 2 -34 18 -1 9 17 9 22 -3 27 -11 4 -15 -2 -15 -26z"/>
<path d="M3556 1901 c-4 -7 -5 -15 -2 -18 9 -9 19 4 14 18 -4 11 -6 11 -12 0z"/>
<path d="M711 1868 c-1 -16 4 -28 9 -28 12 0 12 8 0 35 -8 18 -9 17 -9 -7z"/>
<path d="M2152 1865 c0 -16 2 -22 5 -12 2 9 2 23 0 30 -3 6 -5 -1 -5 -18z"/>
<path d="M3142 1870 c0 -14 2 -19 5 -12 2 6 2 18 0 25 -3 6 -5 1 -5 -13z"/>
<path d="M3793 1830 c0 -30 2 -43 4 -27 2 15 2 39 0 55 -2 15 -4 2 -4 -28z"/>
<path d="M1702 1840 c0 -19 2 -27 5 -17 2 9 2 25 0 35 -3 9 -5 1 -5 -18z"/>
<path d="M1081 1844 c0 -11 3 -14 6 -6 3 7 2 16 -1 19 -3 4 -6 -2 -5 -13z"/>
<path d="M3763 1785 c0 -33 2 -45 4 -27 2 18 2 45 0 60 -2 15 -4 0 -4 -33z"/>
<path d="M741 1813 c0 -10 4 -27 9 -38 7 -17 9 -15 9 12 1 17 -3 35 -9 38 -5
3 -10 -2 -9 -12z"/>
<path d="M1672 1800 c0 -19 2 -27 5 -17 2 9 2 25 0 35 -3 9 -5 1 -5 -18z"/>
<path d="M3302 1810 c0 -14 2 -19 5 -12 2 6 2 18 0 25 -3 6 -5 1 -5 -13z"/>
<path d="M1874 1700 c0 -63 1 -89 3 -57 2 31 2 83 0 115 -2 31 -3 5 -3 -58z"/>
<path d="M2821 1784 c0 -11 3 -14 6 -6 3 7 2 16 -1 19 -3 4 -6 -2 -5 -13z"/>
<path d="M1643 1755 c0 -22 2 -30 4 -17 2 12 2 30 0 40 -3 9 -5 -1 -4 -23z"/>
<path d="M3733 1750 c0 -25 2 -35 4 -22 2 12 2 32 0 45 -2 12 -4 2 -4 -23z"/>
<path d="M2140 1771 c0 -5 5 -13 10 -16 6 -3 10 -2 10 4 0 5 -4 13 -10 16 -5
3 -10 2 -10 -4z"/>
<path d="M781 1728 c-1 -27 4 -48 9 -48 12 0 12 34 0 70 -7 20 -8 16 -9 -22z"/>
<path d="M1111 1760 c0 -17 47 -140 48 -125 0 6 -10 39 -24 75 -13 36 -24 58
-24 50z"/>
<path d="M1611 1720 c0 -25 4 -52 9 -60 8 -12 10 -12 9 5 0 11 -4 38 -8 60
l-9 40 -1 -45z"/>
<path d="M3702 1730 c0 -14 2 -19 5 -12 2 6 2 18 0 25 -3 6 -5 1 -5 -13z"/>
<path d="M2701 1714 c0 -11 3 -14 6 -6 3 7 2 16 -1 19 -3 4 -6 -2 -5 -13z"/>
<path d="M2152 1700 c0 -14 2 -19 5 -12 2 6 2 18 0 25 -3 6 -5 1 -5 -13z"/>
<path d="M1581 1675 c0 -22 4 -47 9 -55 8 -12 9 -10 9 10 -1 14 -5 39 -9 55
-7 29 -8 29 -9 -10z"/>
<path d="M811 1673 c1 -16 5 -39 9 -53 6 -20 8 -14 9 28 1 28 -3 52 -9 52 -5
0 -10 -12 -9 -27z"/>
<path d="M1551 1635 c0 -16 4 -39 9 -50 7 -17 9 -16 9 10 0 17 -4 39 -9 50 -7
17 -9 16 -9 -10z"/>
<path d="M2866 1633 c10 -40 14 -41 14 -5 0 18 -5 32 -10 32 -6 0 -8 -11 -4
-27z"/>
<path d="M850 1593 c0 -28 5 -55 10 -58 13 -8 13 75 0 95 -7 11 -10 0 -10 -37z"/>
<path d="M1521 1595 c0 -16 4 -39 9 -50 7 -17 9 -16 9 10 0 17 -4 39 -9 50 -7
17 -9 16 -9 -10z"/>
<path d="M2513 1540 c0 -47 2 -66 4 -42 2 23 2 61 0 85 -2 23 -4 4 -4 -43z"/>
<path d="M887 1565 c-7 -34 -3 -142 6 -151 13 -13 19 50 10 114 -7 57 -10 62
-16 37z"/>
<path d="M1491 1560 c0 -19 4 -42 9 -50 8 -12 10 -10 9 10 -1 14 -5 36 -9 50
-7 23 -8 22 -9 -10z"/>
<path d="M2701 1578 c0 -9 -4 -25 -7 -35 -5 -14 -4 -15 5 -7 7 7 11 22 8 35
-2 13 -5 16 -6 7z"/>
<path d="M1803 1535 c0 -22 2 -30 4 -17 2 12 2 30 0 40 -3 9 -5 -1 -4 -23z"/>
<path d="M1461 1523 c-1 -17 4 -35 9 -38 11 -7 11 9 0 45 -8 24 -8 24 -9 -7z"/>
<path d="M3241 1510 c-12 -22 -18 -40 -13 -40 9 0 45 70 39 76 -2 2 -14 -14
-26 -36z"/>
<path d="M2442 1490 c0 -19 2 -27 5 -17 2 9 2 25 0 35 -3 9 -5 1 -5 -18z"/>
<path d="M862 1490 c0 -14 2 -19 5 -12 2 6 2 18 0 25 -3 6 -5 1 -5 -13z"/>
<path d="M922 1434 c1 -72 9 -96 23 -74 9 14 -6 150 -16 150 -5 0 -8 -34 -7
-76z"/>
<path d="M2663 1460 c0 -30 2 -43 4 -27 2 15 2 39 0 55 -2 15 -4 2 -4 -28z"/>
<path d="M2731 1494 c0 -11 3 -14 6 -6 3 7 2 16 -1 19 -3 4 -6 -2 -5 -13z"/>
<path d="M1430 1486 c0 -8 5 -18 10 -21 6 -3 10 1 10 9 0 8 -4 18 -10 21 -5 3
-10 -1 -10 -9z"/>
<path d="M2688 1363 c-3 -71 -1 -132 3 -138 5 -5 9 52 9 128 0 75 -2 137 -4
137 -2 0 -6 -57 -8 -127z"/>
<path d="M3346 1421 c-38 -21 -78 -50 -88 -65 -11 -15 -37 -35 -57 -46 -48
-25 -116 -97 -130 -139 -6 -19 -11 -50 -10 -70 l0 -36 30 61 c25 50 40 67 91
99 33 21 65 47 72 57 6 10 15 18 21 18 5 0 43 33 83 74 98 100 97 106 -12 47z"/>
<path d="M960 1404 c0 -62 9 -114 21 -114 10 0 0 129 -12 150 -5 10 -9 -3 -9
-36z"/>
<path d="M2403 1375 c0 -38 2 -53 4 -32 2 20 2 52 0 70 -2 17 -4 1 -4 -38z"/>
<path d="M2473 1365 c0 -38 2 -53 4 -32 2 20 2 52 0 70 -2 17 -4 1 -4 -38z"/>
<path d="M2720 1389 c0 -5 5 -7 10 -4 6 3 10 8 10 11 0 2 -4 4 -10 4 -5 0 -10
-5 -10 -11z"/>
<path d="M1001 1320 c0 -36 4 -72 9 -80 12 -19 12 96 0 125 -6 14 -9 0 -9 -45z"/>
<path d="M3805 1359 c-3 -9 -12 -22 -20 -29 -11 -9 -12 -7 -8 12 9 41 -48 -64
-74 -137 -21 -58 -53 -122 -53 -105 0 13 30 100 49 144 22 50 22 76 0 35 -12
-22 -65 -165 -76 -204 l-5 -20 15 20 16 20 1 -20 c0 -17 2 -17 10 -5 7 11 10
11 10 2 0 -7 5 -10 10 -7 6 3 10 -4 10 -17 0 -17 7 -9 24 27 14 28 25 46 25
42 1 -4 -5 -20 -13 -35 -7 -15 -16 -45 -19 -67 -6 -39 -4 -37 15 14 5 13 11
22 13 19 3 -3 -2 -24 -10 -48 -17 -49 -19 -73 -4 -47 10 17 59 155 59 166 0 3
-7 -4 -15 -15 -19 -25 -19 -14 1 36 9 23 14 43 11 46 -2 3 -9 -9 -15 -25 -6
-17 -13 -31 -16 -31 -9 0 44 143 69 186 14 23 25 47 25 52 0 16 -30 9 -35 -9z
m-61 -170 c-38 -87 -52 -112 -39 -69 12 40 68 161 72 157 2 -3 -13 -42 -33
-88z"/>
<path d="M2363 1310 c0 -36 2 -50 4 -32 2 17 2 47 0 65 -2 17 -4 3 -4 -33z"/>
<path d="M2181 1334 c0 -11 3 -14 6 -6 3 7 2 16 -1 19 -3 4 -6 -2 -5 -13z"/>
<path d="M2112 1310 c0 -14 2 -19 5 -12 2 6 2 18 0 25 -3 6 -5 1 -5 -13z"/>
<path d="M2142 1310 c0 -14 2 -19 5 -12 2 6 2 18 0 25 -3 6 -5 1 -5 -13z"/>
<path d="M2328 1324 c-5 -4 -8 -21 -8 -38 1 -26 2 -28 11 -13 11 19 8 63 -3
51z"/>
<path d="M3443 1306 c-18 -12 -70 -58 -115 -101 -46 -43 -104 -93 -129 -112
-26 -18 -49 -41 -53 -51 -3 -9 -11 -25 -18 -34 -7 -9 -8 -21 -4 -25 5 -4 11
-1 14 7 3 8 16 23 30 35 14 11 43 38 64 60 139 144 153 156 176 152 15 -3 26
1 30 12 3 9 17 31 30 49 28 37 20 40 -25 8z"/>
<path d="M940 1296 c0 -8 5 -18 10 -21 6 -3 10 3 10 14 0 12 -4 21 -10 21 -5
0 -10 -6 -10 -14z"/>
<path d="M2292 1275 c0 -16 2 -22 5 -12 2 9 2 23 0 30 -3 6 -5 -1 -5 -18z"/>
<path d="M2650 1102 l0 -182 24 0 24 0 0 130 c-1 72 -5 130 -9 130 -5 0 -9
-37 -9 -82 0 -121 -11 -88 -17 53 -3 68 -7 126 -9 128 -2 2 -4 -77 -4 -177z
m27 -134 c-3 -7 -5 -2 -5 12 0 14 2 19 5 13 2 -7 2 -19 0 -25z"/>
<path d="M2720 1260 c0 -11 2 -20 4 -20 2 0 6 9 9 20 3 11 1 20 -4 20 -5 0 -9
-9 -9 -20z"/>
<path d="M2832 1245 c0 -16 2 -22 5 -12 2 9 2 23 0 30 -3 6 -5 -1 -5 -18z"/>
<path d="M3646 1235 c-9 -26 -7 -32 5 -12 6 10 9 21 6 23 -2 3 -7 -2 -11 -11z"/>
<path d="M991 1224 c0 -11 3 -14 6 -6 3 7 2 16 -1 19 -3 4 -6 -2 -5 -13z"/>
<path d="M3822 1220 c0 -14 2 -19 5 -12 2 6 2 18 0 25 -3 6 -5 1 -5 -13z"/>
<path d="M2142 1210 c0 -14 2 -19 5 -12 2 6 2 18 0 25 -3 6 -5 1 -5 -13z"/>
<path d="M3631 1184 c0 -11 3 -14 6 -6 3 7 2 16 -1 19 -3 4 -6 -2 -5 -13z"/>
<path d="M2834 1060 c0 -74 1 -105 3 -67 2 37 2 97 0 135 -2 37 -3 6 -3 -68z"/>
<path d="M2721 1164 c0 -11 3 -14 6 -6 3 7 2 16 -1 19 -3 4 -6 -2 -5 -13z"/>
<path d="M2136 1130 c4 -25 7 -75 6 -112 -1 -44 3 -68 10 -68 15 0 5 180 -11
206 -10 16 -11 11 -5 -26z"/>
<path d="M2113 1110 c0 -30 2 -43 4 -27 2 15 2 39 0 55 -2 15 -4 2 -4 -28z"/>
<path d="M2762 1135 c0 -16 2 -22 5 -12 2 9 2 23 0 30 -3 6 -5 -1 -5 -18z"/>
<path d="M3612 1123 c-15 -48 -8 -55 8 -8 7 20 10 38 8 41 -3 2 -10 -13 -16
-33z"/>
<path d="M2790 1131 c0 -25 6 -27 13 -6 4 8 2 17 -3 20 -6 4 -10 -3 -10 -14z"/>
<path d="M2722 1115 c0 -16 2 -22 5 -12 2 9 2 23 0 30 -3 6 -5 -1 -5 -18z"/>
<path d="M3787 1091 c-4 -17 -3 -21 5 -13 5 5 8 16 6 23 -3 8 -7 3 -11 -10z"/>
<path d="M2180 1012 c0 -45 4 -82 9 -82 9 0 3 149 -5 159 -2 2 -4 -32 -4 -77z"/>
<path d="M2723 1040 c0 -25 2 -35 4 -22 2 12 2 32 0 45 -2 12 -4 2 -4 -23z"/>
<path d="M2293 1010 c0 -36 2 -50 4 -32 2 17 2 47 0 65 -2 17 -4 3 -4 -33z"/>
<path d="M2616 987 c-8 -62 -4 -89 9 -75 3 3 5 37 3 74 l-3 69 -9 -68z"/>
<path d="M3641 1034 c0 -11 3 -14 6 -6 3 7 2 16 -1 19 -3 4 -6 -2 -5 -13z"/>
<path d="M2111 1025 c-1 -11 -4 -30 -7 -42 -5 -17 -2 -23 10 -23 17 0 19 19 6
60 -7 21 -8 22 -9 5z"/>
<path d="M2219 990 c-5 -55 -4 -68 7 -58 3 3 4 30 2 59 l-3 54 -6 -55z"/>
<path d="M2431 993 c-1 -28 3 -54 8 -57 5 -3 6 16 4 42 -7 69 -11 74 -12 15z"/>
<path d="M3757 1013 c-3 -10 -15 -45 -27 -78 -13 -39 -18 -70 -14 -90 7 -29 8
-27 31 34 13 35 22 66 19 68 -2 2 -9 -12 -16 -32 -7 -20 -14 -34 -17 -31 -3 2
5 35 17 71 12 36 20 68 17 71 -2 3 -7 -3 -10 -13z"/>
<path d="M3681 1004 c0 -11 3 -14 6 -6 3 7 2 16 -1 19 -3 4 -6 -2 -5 -13z"/>
<path d="M2020 990 c0 -17 -5 -19 -24 -14 -20 5 -27 0 -41 -27 -45 -87 -59
-174 -38 -229 4 -8 7 -17 8 -20 7 -29 42 -83 61 -93 13 -7 23 -16 23 -22 0 -5
20 -11 43 -12 42 -2 42 -2 16 10 -21 10 -25 16 -17 24 8 8 5 13 -11 18 -16 5
-18 10 -10 20 8 9 7 14 -5 18 -8 4 -12 13 -9 22 4 9 -1 17 -10 21 -13 5 -14 9
-5 20 9 11 9 14 0 14 -8 0 -10 8 -6 20 3 11 2 20 -3 20 -5 0 -8 31 -6 73 5
101 4 98 34 104 22 4 26 9 22 29 -5 29 -22 32 -22 4z m-23 -356 c-3 -3 -12 -4
-19 -1 -8 3 -5 6 6 6 11 1 17 -2 13 -5z"/>
<path d="M2070 985 c0 -14 5 -25 10 -25 6 0 10 11 10 25 0 14 -4 25 -10 25 -5
0 -10 -11 -10 -25z"/>
<path d="M2402 980 c0 -19 2 -27 5 -17 2 9 2 25 0 35 -3 9 -5 1 -5 -18z"/>
<path d="M2793 970 c0 -25 2 -35 4 -22 2 12 2 32 0 45 -2 12 -4 2 -4 -23z"/>
<path d="M2250 971 c0 -17 5 -31 10 -31 6 0 10 11 10 24 0 14 -4 28 -10 31 -6
4 -10 -7 -10 -24z"/>
<path d="M2583 960 c0 -25 2 -35 4 -22 2 12 2 32 0 45 -2 12 -4 2 -4 -23z"/>
<path d="M830 976 c0 -9 -12 -13 -32 -14 -40 0 -78 -11 -78 -23 0 -5 -7 -9
-15 -9 -8 0 -15 -7 -15 -15 0 -19 32 -33 38 -17 2 7 8 12 14 12 5 0 16 7 25
16 10 10 25 13 44 9 27 -6 29 -5 29 24 0 17 -2 31 -5 31 -3 0 -5 -6 -5 -14z"/>
<path d="M3288 983 c7 -3 16 -2 19 1 4 3 -2 6 -13 5 -11 0 -14 -3 -6 -6z"/>
<path d="M2722 950 c0 -19 2 -27 5 -17 2 9 2 25 0 35 -3 9 -5 1 -5 -18z"/>
<path d="M2756 964 c-3 -9 -2 -23 4 -32 7 -14 9 -10 10 16 0 35 -5 41 -14 16z"/>
<path d="M3390 960 c0 -5 5 -10 10 -10 6 0 10 5 10 10 0 6 -4 10 -10 10 -5 0
-10 -4 -10 -10z"/>
<path d="M1012 930 c0 -19 2 -27 5 -17 2 9 2 25 0 35 -3 9 -5 1 -5 -18z"/>
<path d="M1035 925 c-4 -22 -9 -42 -9 -44 -1 -2 9 -5 21 -7 18 -3 22 3 28 37
8 47 -1 64 -12 23 l-7 -29 -6 30 -7 30 -8 -40z"/>
<path d="M2471 934 c0 -11 3 -14 6 -6 3 7 2 16 -1 19 -3 4 -6 -2 -5 -13z"/>
<path d="M3180 937 c0 -13 25 -47 35 -47 8 0 -9 41 -21 51 -11 9 -14 8 -14 -4z"/>
<path d="M662 893 c2 -9 9 -18 16 -21 18 -6 15 25 -4 32 -11 4 -14 1 -12 -11z"/>
<path d="M630 878 c0 -18 18 -34 28 -24 3 4 -2 14 -11 23 -16 16 -17 16 -17 1z"/>
<path d="M610 840 c6 -11 13 -20 16 -20 2 0 0 9 -6 20 -6 11 -13 20 -16 20 -2
0 0 -9 6 -20z"/>
<path d="M1116 851 c-4 -7 -5 -15 -2 -18 9 -9 19 4 14 18 -4 11 -6 11 -12 0z"/>
<path d="M3230 794 c0 -14 3 -15 18 -3 9 7 19 15 21 16 2 2 -5 3 -17 3 -14 0
-22 -6 -22 -16z"/>
<path d="M3622 769 c-13 -16 -33 -29 -44 -29 -30 0 -125 -60 -137 -87 -19 -41
-13 -61 8 -28 19 33 76 85 92 85 16 0 10 -7 -30 -33 -28 -19 -43 -38 -50 -64
-17 -60 -13 -61 22 -3 22 39 45 62 77 79 l45 24 -29 -31 c-16 -18 -38 -34 -48
-38 -20 -6 -48 -53 -48 -80 0 -9 14 4 33 31 31 45 97 97 97 77 0 -12 -57 -62
-71 -62 -13 0 -39 -55 -39 -82 0 -19 4 -17 23 16 12 21 42 55 67 75 l44 36
-22 -32 c-12 -17 -32 -35 -43 -38 -12 -4 -29 -26 -40 -48 -21 -46 -24 -71 -9
-62 13 8 13 -1 0 -26 -8 -14 -7 -19 1 -19 7 0 9 -11 5 -30 -3 -19 -2 -29 4
-25 20 12 9 -11 -22 -44 -29 -33 -37 -36 -132 -47 -56 -7 -155 -14 -221 -15
-66 -1 -100 -4 -75 -6 67 -5 82 -15 35 -23 -38 -7 -37 -7 18 -9 31 0 57 -5 57
-11 0 -5 21 -10 48 -10 67 0 88 -17 31 -24 -103 -15 -486 1 -511 21 -7 6 -40
14 -73 17 -33 4 -78 16 -100 26 -26 13 -71 21 -132 24 -89 5 -93 4 -93 -15 0
-27 -24 -19 -28 9 -2 13 -13 24 -28 28 -13 3 -28 12 -32 18 -4 6 -37 19 -73
27 l-66 16 -11 -29 c-5 -15 -17 -28 -26 -28 -18 0 -22 25 -6 35 16 10 12 25
-6 25 -9 0 -23 -8 -30 -17 -11 -16 -13 -16 -19 10 -4 15 -11 27 -17 27 -5 0
-6 5 -2 12 5 8 2 9 -10 5 -10 -4 -20 -7 -22 -7 -2 0 -4 -5 -4 -11 0 -15 -26
-39 -43 -39 -28 0 -28 -29 -1 -36 19 -5 22 -9 12 -15 -11 -7 -10 -11 2 -18 8
-6 12 -12 10 -14 -3 -2 -47 -14 -99 -26 -106 -25 -161 -49 -141 -61 9 -6 7
-10 -8 -14 -11 -4 -36 -19 -56 -34 -19 -15 -52 -37 -73 -50 -21 -12 -56 -34
-78 -47 l-40 -24 278 -1 c265 0 375 9 362 31 -3 4 14 13 37 19 24 7 57 18 73
26 25 12 25 13 5 8 -14 -3 -41 -8 -60 -11 -28 -3 -32 -2 -20 7 12 9 9 10 -15
6 -84 -17 -108 -19 -101 -8 4 7 15 13 24 13 9 1 4 4 -13 8 l-30 7 40 20 c25
12 39 26 37 36 -2 14 13 23 72 42 10 4 25 1 32 -5 13 -11 29 -10 66 6 13 5 21
0 29 -21 7 -16 11 -35 10 -42 -1 -6 3 -12 9 -12 5 0 10 -7 10 -15 0 -9 6 -18
14 -21 8 -3 12 -12 9 -20 -3 -8 1 -14 8 -14 9 0 10 -3 3 -10 -6 -6 -55 -19
-110 -29 l-99 -19 665 -1 665 -1 66 113 c92 154 105 182 129 273 12 43 26 95
31 114 23 80 31 118 33 170 3 48 2 52 -8 29 -18 -42 -29 -35 -51 34 l-20 64
-23 -28z m2 -183 c-3 -7 -16 -19 -29 -26 -14 -7 -27 -21 -30 -31 -3 -9 -13
-23 -23 -31 -14 -11 -14 -9 2 17 36 57 95 110 80 71z m-15 -63 c-18 -21 -35
-40 -36 -42 -2 -2 -3 0 -3 5 0 12 56 74 66 74 5 0 -8 -17 -27 -37z m31 -16 c0
-2 -10 -12 -22 -23 l-23 -19 19 23 c18 21 26 27 26 19z m-1440 -189 c0 -13
-43 -6 -47 8 -2 7 6 10 22 7 14 -3 25 -10 25 -15z m48 -41 c22 -17 15 -40 -10
-32 -13 3 -54 11 -93 16 -38 5 -92 13 -120 18 l-50 8 58 2 c32 0 79 -4 104
-11 39 -9 47 -9 55 5 9 16 30 14 56 -6z m185 -23 c10 -11 -4 -33 -18 -28 -8 3
-11 12 -8 20 5 15 16 18 26 8z m-313 -14 c0 -13 -11 -13 -30 0 -12 8 -11 10 8
10 12 0 22 -4 22 -10z m-104 -25 c-6 -18 -2 -19 26 -4 11 6 22 8 25 5 3 -2
-35 -25 -83 -51 -49 -25 -104 -56 -122 -69 -32 -24 -155 -53 -183 -44 -8 3 16
15 54 27 37 13 65 26 62 31 -3 4 10 13 27 19 31 11 78 39 138 82 32 23 64 25
56 4z m387 -27 c9 2 17 -2 17 -9 0 -10 3 -10 12 -1 17 17 28 15 28 -4 0 -13 3
-14 15 -4 12 10 16 9 21 -4 4 -10 13 -14 24 -11 14 4 20 -1 25 -25 8 -35 -1
-52 -15 -30 -8 12 -10 12 -16 -3 -3 -9 -9 -15 -13 -12 -7 4 -88 -15 -123 -30
-13 -5 -18 1 -24 29 -3 20 -11 36 -16 36 -6 0 -8 7 -4 15 3 8 1 15 -4 15 -6 0
-10 6 -10 13 0 15 41 36 55 28 6 -3 18 -4 28 -3z m177 -69 c0 -10 -4 -19 -10
-19 -5 0 -10 12 -10 26 0 14 4 23 10 19 6 -3 10 -15 10 -26z m34 6 c3 -8 1
-15 -4 -15 -6 0 -10 7 -10 15 0 8 2 15 4 15 2 0 6 -7 10 -15z m-546 -72 c-10
-2 -26 -2 -35 0 -10 3 -2 5 17 5 19 0 27 -2 18 -5z m5 -30 c-7 -2 -21 -2 -30
0 -10 3 -4 5 12 5 17 0 24 -2 18 -5z"/>
<path d="M3250 760 c0 -5 4 -10 9 -10 6 0 13 5 16 10 3 6 -1 10 -9 10 -9 0
-16 -4 -16 -10z"/>
<path d="M3700 763 c1 -18 18 -35 24 -24 4 6 4 16 1 21 -7 12 -25 13 -25 3z"/>
<path d="M3406 728 c-9 -12 -16 -26 -16 -31 0 -13 29 12 41 35 14 26 -6 23
-25 -4z"/>
<path d="M3266 725 c4 -8 10 -15 14 -15 4 0 13 7 20 15 11 13 8 15 -13 15 -19
0 -25 -4 -21 -15z"/>
<path d="M3430 700 c-11 -11 -20 -28 -20 -37 1 -16 2 -16 16 2 38 50 41 72 4
35z"/>
<path d="M3290 690 c0 -5 9 -10 19 -10 11 0 23 5 26 10 4 6 -5 10 -19 10 -14
0 -26 -4 -26 -10z"/>
<path d="M1085 652 c-75 -42 -105 -65 -105 -78 0 -18 24 -18 40 1 7 8 19 15
26 15 8 0 14 5 14 10 0 6 9 10 20 10 11 0 20 7 20 15 0 8 4 15 9 15 5 0 11 7
15 15 7 19 -1 18 -39 -3z"/>
<path d="M3310 660 c-11 -7 -7 -10 18 -10 20 0 31 4 27 10 -8 13 -26 13 -45 0z"/>
<path d="M1269 647 c15 -19 41 -23 41 -7 0 6 -4 10 -9 10 -5 0 -18 3 -28 7
-16 6 -16 5 -4 -10z"/>
<path d="M3343 633 c-7 -2 -13 -9 -13 -14 0 -6 6 -9 13 -8 34 4 42 -2 23 -16
-19 -15 -19 -15 1 -15 34 0 36 -17 3 -29 -17 -5 -30 -13 -30 -16 0 -5 18 -4
78 5 8 1 -2 26 -24 60 -27 41 -30 42 -51 33z"/>
<path d="M1333 617 c2 -7 14 -14 26 -15 28 -4 20 13 -9 21 -14 3 -20 1 -17 -6z"/>
<path d="M1430 591 c0 -5 16 -19 35 -32 19 -13 35 -29 35 -36 0 -7 12 -19 28
-27 l27 -15 -40 -2 -40 -1 40 -13 c37 -12 116 -20 88 -8 -20 7 -15 25 5 19 19
-6 36 3 39 21 2 10 -16 21 -117 67 -50 23 -100 36 -100 27z"/>
<path d="M950 556 c0 -9 7 -16 16 -16 17 0 14 22 -4 28 -7 2 -12 -3 -12 -12z"/>
<path d="M926 542 c-3 -6 -1 -14 5 -17 14 -9 20 -2 10 14 -6 8 -11 9 -15 3z"/>
<path d="M2075 540 c3 -5 18 -10 33 -9 24 0 25 1 7 9 -28 12 -47 12 -40 0z"/>
<path d="M1428 533 c7 -3 16 -2 19 1 4 3 -2 6 -13 5 -11 0 -14 -3 -6 -6z"/>
<path d="M3471 524 c0 -11 3 -14 6 -6 3 7 2 16 -1 19 -3 4 -6 -2 -5 -13z"/>
<path d="M1315 520 c11 -5 27 -9 35 -9 9 0 8 4 -5 9 -11 5 -27 9 -35 9 -9 0
-8 -4 5 -9z"/>
<path d="M3390 514 l-25 -15 25 5 c14 3 31 6 38 6 7 0 10 5 7 10 -8 13 -15 12
-45 -6z"/>
<path d="M1390 500 c36 -11 52 -11 45 0 -3 6 -21 10 -38 9 -31 -1 -31 -1 -7
-9z"/>
<path d="M1760 494 c0 -16 9 -18 28 -5 10 6 9 10 -7 14 -14 3 -21 0 -21 -9z"/>
<path d="M1245 490 c4 -6 -12 -10 -42 -10 -35 0 -44 -3 -33 -10 11 -7 7 -10
-17 -10 -38 0 -65 -9 -58 -20 3 -5 -8 -11 -25 -15 -17 -4 -28 -11 -24 -16 3
-5 1 -9 -5 -9 -5 0 -25 -13 -43 -30 -49 -45 -182 -139 -229 -161 -22 -11 -39
-23 -36 -25 7 -7 121 28 125 38 2 5 17 8 33 8 16 0 29 5 29 10 0 6 7 10 16 10
8 0 12 5 9 10 -3 6 -1 10 5 10 6 0 21 11 34 25 13 14 27 25 32 25 5 1 20 14
34 30 13 17 29 30 36 30 7 0 14 7 18 15 3 8 15 15 26 15 11 0 20 5 20 10 0 6
9 10 19 10 11 0 26 7 35 15 8 8 30 15 48 15 26 0 30 3 18 11 -11 8 2 9 50 6
62 -5 64 -4 30 8 -42 16 -114 19 -105 5z"/>
<path d="M3430 480 c-12 -8 -11 -10 8 -10 12 0 22 5 22 10 0 13 -11 13 -30 0z"/>
<path d="M3491 474 c0 -11 3 -14 6 -6 3 7 2 16 -1 19 -3 4 -6 -2 -5 -13z"/>
<path d="M1690 466 c0 -2 9 -6 20 -9 11 -3 18 -1 14 4 -5 9 -34 13 -34 5z"/>
<path d="M3388 463 c7 -3 16 -2 19 1 4 3 -2 6 -13 5 -11 0 -14 -3 -6 -6z"/>
<path d="M3420 438 l-45 -18 45 6 c45 5 69 18 53 26 -4 3 -28 -4 -53 -14z"/>
<path d="M2858 433 c6 -2 18 -2 25 0 6 3 1 5 -13 5 -14 0 -19 -2 -12 -5z"/>
<path d="M3438 403 c-10 -2 -18 -8 -18 -13 0 -5 14 -4 30 1 45 16 36 25 -12
12z"/>
<path d="M1910 370 c0 -5 7 -10 16 -10 8 0 12 5 9 10 -3 6 -10 10 -16 10 -5 0
-9 -4 -9 -10z"/>
<path d="M1813 338 c-18 -5 -33 -13 -33 -18 0 -12 -3 -12 44 4 45 16 36 27
-11 14z"/>
<path d="M3358 343 c12 -2 30 -2 40 0 9 3 -1 5 -23 4 -22 0 -30 -2 -17 -4z"/>
<path d="M3263 333 c9 -2 23 -2 30 0 6 3 -1 5 -18 5 -16 0 -22 -2 -12 -5z"/>
<path d="M2898 323 c7 -3 16 -2 19 1 4 3 -2 6 -13 5 -11 0 -14 -3 -6 -6z"/>
<path d="M1557 314 c-3 -4 -41 -7 -84 -9 -97 -3 -346 -31 -394 -45 -20 -5 -47
-10 -60 -10 -18 -1 -20 -3 -9 -9 17 -10 466 26 491 39 9 5 70 12 135 16 113 8
116 9 59 15 -82 9 -130 10 -138 3z"/>
<path d="M1813 309 c-32 -9 -50 -25 -40 -36 8 -8 107 27 107 38 0 11 -24 10
-67 -2z"/>
<path d="M2350 305 c41 -7 77 -11 79 -9 10 9 -56 24 -102 23 -52 -1 -52 -1 23
-14z"/>
<path d="M3325 310 c-49 -7 -49 -7 20 -8 39 0 79 3 90 8 24 11 -33 11 -110 0z"/>
<path d="M2933 293 c15 -2 39 -2 55 0 15 2 2 4 -28 4 -30 0 -43 -2 -27 -4z"/>
<path d="M1823 267 c-23 -7 -50 -20 -60 -31 -17 -17 -17 -18 5 -11 40 12 128
54 112 53 -8 0 -34 -5 -57 -11z"/>
<path d="M2988 263 c7 -3 16 -2 19 1 4 3 -2 6 -13 5 -11 0 -14 -3 -6 -6z"/>
<path d="M1208 143 c6 -2 18 -2 25 0 6 3 1 5 -13 5 -14 0 -19 -2 -12 -5z"/>
<path d="M1030 121 c0 -7 -15 -11 -37 -10 -47 1 -111 -9 -132 -21 -12 -7 -8
-9 19 -9 42 0 264 36 234 38 -12 1 -36 4 -53 7 -20 4 -31 3 -31 -5z"/>
<path d="M1153 123 c9 -2 25 -2 35 0 9 3 1 5 -18 5 -19 0 -27 -2 -17 -5z"/>
<path d="M1505 100 c-3 -5 -19 -10 -36 -10 -16 0 -37 -4 -47 -9 -28 -15 -150
-40 -266 -55 -59 -8 -111 -18 -115 -21 -5 -6 221 0 239 6 3 0 15 0 27 0 11 -1
24 3 28 8 3 6 17 8 31 5 14 -4 24 -2 24 5 0 6 10 11 23 11 24 0 94 30 130 55
l21 15 -26 0 c-15 0 -30 -4 -33 -10z"/>
<path d="M728 33 c7 -3 16 -2 19 1 4 3 -2 6 -13 5 -11 0 -14 -3 -6 -6z"/>
<path d="M845 10 c19 -8 123 -14 114 -6 -2 2 -33 6 -69 9 -38 3 -57 1 -45 -3z"/>
</g>
</svg>
